# Blender 4.2.19 LTS
# www.blender.org
o Куб
v -1.214585 -0.007377 3.117388
v -1.214585 0.275069 3.117388
v -1.214585 -0.007377 0.876862
v -1.214585 0.275069 0.876862
v 4.653381 -0.007377 3.117388
v 4.653381 0.275069 3.117388
v 4.653381 -0.007377 0.876862
v 4.653381 0.275069 0.876862
vn -1.0000 -0.0000 -0.0000
vn -0.0000 -0.0000 -1.0000
vn 1.0000 -0.0000 -0.0000
vn -0.0000 -0.0000 1.0000
vn -0.0000 -1.0000 -0.0000
vn -0.0000 1.0000 -0.0000
vt 0.625000 0.000000
vt 0.375000 0.250000
vt 0.375000 0.000000
vt 0.625000 0.250000
vt 0.375000 0.500000
vt 0.625000 0.500000
vt 0.375000 0.750000
vt 0.625000 0.750000
vt 0.375000 1.000000
vt 0.125000 0.750000
vt 0.125000 0.500000
vt 0.875000 0.500000
vt 0.625000 1.000000
vt 0.875000 0.750000
s 0
f 2/1/1 3/2/1 1/3/1
f 4/4/2 7/5/2 3/2/2
f 8/6/3 5/7/3 7/5/3
f 6/8/4 1/9/4 5/7/4
f 7/5/5 1/10/5 3/11/5
f 4/12/6 6/8/6 8/6/6
f 2/1/1 4/4/1 3/2/1
f 4/4/2 8/6/2 7/5/2
f 8/6/3 6/8/3 5/7/3
f 6/8/4 2/13/4 1/9/4
f 7/5/5 5/7/5 1/10/5
f 4/12/6 2/14/6 6/8/6
o Куб.001
v 2.178035 0.275069 3.102177
v 2.178035 0.805446 3.102177
v 2.178035 0.275069 0.902069
v 2.178035 0.805446 0.902069
v 4.649016 0.275069 3.102177
v 4.649016 0.805446 3.102177
v 4.649016 0.275069 0.902069
v 4.649016 0.805446 0.902069
v 2.167774 0.812823 3.083087
v 2.167774 1.245203 3.083087
v 2.167774 0.812823 0.930940
v 2.167774 1.245203 0.930940
v 3.434697 0.812823 3.083087
v 3.434697 1.245203 3.083087
v 3.434697 0.812823 0.930940
v 3.434697 1.245203 0.930940
v 2.465324 1.245203 2.578683
v 2.465324 3.944157 2.578683
v 2.465324 1.245203 1.751890
v 2.465324 3.944157 1.751890
v 3.115800 1.245203 2.578683
v 3.115800 3.944157 2.578683
v 3.115800 1.245203 1.751890
v 3.115800 3.944157 1.751890
vn -1.0000 -0.0000 -0.0000
vn -0.0000 -0.0000 -1.0000
vn 1.0000 -0.0000 -0.0000
vn -0.0000 -0.0000 1.0000
vn -0.0000 -1.0000 -0.0000
vn -0.0000 1.0000 -0.0000
vt 0.625000 0.000000
vt 0.375000 0.250000
vt 0.375000 0.000000
vt 0.625000 0.250000
vt 0.375000 0.500000
vt 0.625000 0.500000
vt 0.375000 0.750000
vt 0.625000 0.750000
vt 0.375000 1.000000
vt 0.125000 0.750000
vt 0.125000 0.500000
vt 0.875000 0.500000
vt 0.625000 1.000000
vt 0.875000 0.750000
s 0
f 10/15/7 11/16/7 9/17/7
f 12/18/8 15/19/8 11/16/8
f 16/20/9 13/21/9 15/19/9
f 14/22/10 9/23/10 13/21/10
f 15/19/11 9/24/11 11/25/11
f 12/26/12 14/22/12 16/20/12
f 18/15/7 19/16/7 17/17/7
f 20/18/8 23/19/8 19/16/8
f 24/20/9 21/21/9 23/19/9
f 22/22/10 17/23/10 21/21/10
f 23/19/11 17/24/11 19/25/11
f 20/26/12 22/22/12 24/20/12
f 26/15/7 27/16/7 25/17/7
f 28/18/8 31/19/8 27/16/8
f 32/20/9 29/21/9 31/19/9
f 30/22/10 25/23/10 29/21/10
f 31/19/11 25/24/11 27/25/11
f 28/26/12 30/22/12 32/20/12
f 10/15/7 12/18/7 11/16/7
f 12/18/8 16/20/8 15/19/8
f 16/20/9 14/22/9 13/21/9
f 14/22/10 10/27/10 9/23/10
f 15/19/11 13/21/11 9/24/11
f 12/26/12 10/28/12 14/22/12
f 18/15/7 20/18/7 19/16/7
f 20/18/8 24/20/8 23/19/8
f 24/20/9 22/22/9 21/21/9
f 22/22/10 18/27/10 17/23/10
f 23/19/11 21/21/11 17/24/11
f 20/26/12 18/28/12 22/22/12
f 26/15/7 28/18/7 27/16/7
f 28/18/8 32/20/8 31/19/8
f 32/20/9 30/22/9 29/21/9
f 30/22/10 26/27/10 25/23/10
f 31/19/11 29/21/11 25/24/11
f 28/26/12 26/28/12 30/22/12
o Куб.005
v 3.074215 3.944157 -0.274652
v 3.074215 4.452038 -0.274652
v 3.074216 3.944157 6.242485
v 3.074216 4.452039 6.242485
v 2.478790 3.944157 -0.274652
v 2.478790 4.452038 -0.274652
v 2.478791 3.944157 6.242485
v 2.478791 4.452039 6.242485
vn 1.0000 -0.0000 -0.0000
vn -0.0000 -0.0000 1.0000
vn -1.0000 -0.0000 -0.0000
vn -0.0000 -0.0000 -1.0000
vn -0.0000 -1.0000 -0.0000
vn -0.0000 1.0000 -0.0000
vt 0.625000 0.000000
vt 0.375000 0.250000
vt 0.375000 0.000000
vt 0.625000 0.250000
vt 0.375000 0.500000
vt 0.625000 0.500000
vt 0.375000 0.750000
vt 0.625000 0.750000
vt 0.375000 1.000000
vt 0.125000 0.750000
vt 0.125000 0.500000
vt 0.875000 0.500000
vt 0.625000 1.000000
vt 0.875000 0.750000
s 0
f 34/29/13 35/30/13 33/31/13
f 36/32/14 39/33/14 35/30/14
f 40/34/15 37/35/15 39/33/15
f 38/36/16 33/37/16 37/35/16
f 39/33/17 33/38/17 35/39/17
f 36/40/18 38/36/18 40/34/18
f 34/29/13 36/32/13 35/30/13
f 36/32/14 40/34/14 39/33/14
f 40/34/15 38/36/15 37/35/15
f 38/36/16 34/41/16 33/37/16
f 39/33/17 37/35/17 33/38/17
f 36/40/18 34/42/18 38/36/18
o Куб.004
v 2.989286 4.039414 5.994359
v 2.989286 4.039414 6.658113
v 2.585109 4.039414 5.994359
v 2.585109 4.039414 6.658113
v 2.989286 4.286527 5.994359
v 2.989286 4.286527 6.658113
v 2.585109 4.286527 5.994359
v 2.585109 4.286527 6.658113
v 2.717535 4.048656 6.658113
v 2.717535 4.048656 7.201368
v 2.589293 4.048656 6.658113
v 2.589293 4.048656 7.201368
v 2.717535 4.282493 6.658113
v 2.717535 4.282493 7.201368
v 2.589293 4.282493 6.658113
v 2.589293 4.282493 7.201368
v 2.981860 4.056463 6.662747
v 2.981860 4.056463 7.206002
v 2.853617 4.056463 6.662747
v 2.853617 4.056463 7.206002
v 2.981860 4.290299 6.662747
v 2.981860 4.290299 7.206002
v 2.853617 4.290299 6.662747
v 2.853617 4.290299 7.206002
vn -0.0000 -1.0000 -0.0000
vn -1.0000 -0.0000 -0.0000
vn -0.0000 1.0000 -0.0000
vn 1.0000 -0.0000 -0.0000
vn -0.0000 -0.0000 -1.0000
vn -0.0000 -0.0000 1.0000
vt 0.625000 0.000000
vt 0.375000 0.250000
vt 0.375000 0.000000
vt 0.625000 0.250000
vt 0.375000 0.500000
vt 0.625000 0.500000
vt 0.375000 0.750000
vt 0.625000 0.750000
vt 0.375000 1.000000
vt 0.125000 0.750000
vt 0.125000 0.500000
vt 0.875000 0.500000
vt 0.625000 1.000000
vt 0.875000 0.750000
s 0
f 42/43/19 43/44/19 41/45/19
f 44/46/20 47/47/20 43/44/20
f 48/48/21 45/49/21 47/47/21
f 46/50/22 41/51/22 45/49/22
f 47/47/23 41/52/23 43/53/23
f 44/54/24 46/50/24 48/48/24
f 50/43/19 51/44/19 49/45/19
f 52/46/20 55/47/20 51/44/20
f 56/48/21 53/49/21 55/47/21
f 54/50/22 49/51/22 53/49/22
f 55/47/23 49/52/23 51/53/23
f 52/54/24 54/50/24 56/48/24
f 58/43/19 59/44/19 57/45/19
f 60/46/20 63/47/20 59/44/20
f 64/48/21 61/49/21 63/47/21
f 62/50/22 57/51/22 61/49/22
f 63/47/23 57/52/23 59/53/23
f 60/54/24 62/50/24 64/48/24
f 42/43/19 44/46/19 43/44/19
f 44/46/20 48/48/20 47/47/20
f 48/48/21 46/50/21 45/49/21
f 46/50/22 42/55/22 41/51/22
f 47/47/23 45/49/23 41/52/23
f 44/54/24 42/56/24 46/50/24
f 50/43/19 52/46/19 51/44/19
f 52/46/20 56/48/20 55/47/20
f 56/48/21 54/50/21 53/49/21
f 54/50/22 50/55/22 49/51/22
f 55/47/23 53/49/23 49/52/23
f 52/54/24 50/56/24 54/50/24
f 58/43/19 60/46/19 59/44/19
f 60/46/20 64/48/20 63/47/20
f 64/48/21 62/50/21 61/49/21
f 62/50/22 58/55/22 57/51/22
f 63/47/23 61/49/23 57/52/23
f 60/54/24 58/56/24 62/50/24
